<svg xmlns="http://www.w3.org/2000/svg" width="20.735" height="17.316" viewBox="0 0 20.735 17.316">
  <g id="Group_23095" data-name="Group 23095" transform="translate(3766.3 -965.366)">
    <g id="Group_22421" data-name="Group 22421" transform="translate(-3765.5 966.227)">
      <g id="Group_727" data-name="Group 727">
        <g id="Group_21656" data-name="Group 21656" transform="translate(0)">
          <g id="Group_3349" data-name="Group 3349" transform="translate(0 10.437)">
            <path id="Path_4192" data-name="Path 4192" d="M13.916,5.219V3.479A3.479,3.479,0,0,0,10.437,0H3.479A3.479,3.479,0,0,0,0,3.479v1.74" fill="none" stroke="#7b7c89" stroke-linecap="round" stroke-linejoin="round" stroke-width="1.6"/>
          </g>
          <g id="Group_3350" data-name="Group 3350" transform="translate(3.479)">
            <path id="Path_4193" data-name="Path 4193" d="M3.479,6.958A3.479,3.479,0,1,0,0,3.479,3.479,3.479,0,0,0,3.479,6.958Z" fill="none" stroke="#7b7c89" stroke-linecap="round" stroke-linejoin="round" stroke-width="1.6"/>
          </g>
          <g id="Group_3351" data-name="Group 3351" transform="translate(16.526 10.55)">
            <path id="Path_4194" data-name="Path 4194" d="M2.609,5.106V3.366A3.479,3.479,0,0,0,0,0" fill="none" stroke="#7b7c89" stroke-linecap="round" stroke-linejoin="round" stroke-width="1.6"/>
          </g>
          <g id="Group_3352" data-name="Group 3352" transform="translate(13.047 0.113)">
            <path id="Path_4195" data-name="Path 4195" d="M0,0A3.479,3.479,0,0,1,2.616,3.37,3.479,3.479,0,0,1,0,6.741" fill="none" stroke="#7b7c89" stroke-linecap="round" stroke-linejoin="round" stroke-width="1.6"/>
          </g>
        </g>
      </g>
    </g>
  </g>
</svg>
