<svg xmlns="http://www.w3.org/2000/svg" width="19.056" height="17.31" viewBox="0 0 19.056 17.31">
  <g id="Group_23100" data-name="Group 23100" transform="translate(2949.756 -121.938)">
    <g id="Group_281" data-name="Group 281" transform="translate(-2948.956 126.229)">
      <path id="Path_3702" data-name="Path 3702" d="M1.746,0H15.71a1.746,1.746,0,0,1,1.746,1.746v8.728a1.746,1.746,0,0,1-1.746,1.746H1.746A1.746,1.746,0,0,1,0,10.473V1.746A1.746,1.746,0,0,1,1.746,0Z" fill="none" stroke="#7b7c89" stroke-linecap="round" stroke-linejoin="round" stroke-width="1.6"/>
    </g>
    <g id="Group_282" data-name="Group 282" transform="translate(-2943.72 122.738)">
      <path id="Path_3703" data-name="Path 3703" d="M6.982,15.71V1.746A1.746,1.746,0,0,0,5.237,0H1.746A1.746,1.746,0,0,0,0,1.746V15.71" fill="none" stroke="#7b7c89" stroke-linecap="round" stroke-linejoin="round" stroke-width="1.6"/>
    </g>
  </g>
</svg>
