<svg xmlns="http://www.w3.org/2000/svg" width="23.205" height="20" viewBox="0 0 23.205 20">
  <g id="Group_23159" data-name="Group 23159" transform="translate(1072 -1005)">
    <path id="Path_4264" data-name="Path 4264" d="M119.919,78.426a3.8,3.8,0,0,0-3.791,3.789V97.667h0a.579.579,0,0,0,.988.409l3.207-3.207h5.066a.579.579,0,0,0,.532-.352l6.509-15.286a.579.579,0,0,0-.532-.805Zm0,1.157h11.1l-6.017,14.129h-4.923a.579.579,0,0,0-.409.169l-2.389,2.388V82.215a2.624,2.624,0,0,1,2.634-2.632Z" transform="translate(-1188.128 926.574)" fill="#4baab4"/>
    <path id="Path_4265" data-name="Path 4265" d="M194.487,152.429a.579.579,0,0,0-.578.578v1.746a.58.58,0,0,0,1.159,0v-1.168H197.4v1.8l-1.578,1.578a.58.58,0,0,0-.168.41v1.746a.58.58,0,0,0,1.16,0V157.61l1.574-1.574a.579.579,0,0,0,.172-.41v-2.619a.579.579,0,0,0-.582-.578Z" transform="translate(-1262.05 856.242)" fill="#454545"/>
    <path id="Path_4266" data-name="Path 4266" d="M230.857,312.828a.6.6,0,1,1-.175-.422A.6.6,0,0,1,230.857,312.828Z" transform="translate(-1296.03 704.368)" fill="#454545" fill-rule="evenodd"/>
    <path id="Path_4267" data-name="Path 4267" d="M298.247,150.108a.579.579,0,0,0-.532.352l-6.509,15.286a.579.579,0,0,0,.532.805H301.89a3.8,3.8,0,0,0,3.791-3.789V153.9a3.8,3.8,0,0,0-3.791-3.789Zm.381,1.157h3.262a2.624,2.624,0,0,1,2.634,2.632v8.866a2.624,2.624,0,0,1-2.634,2.632h-9.278Z" transform="translate(-1354.476 858.448)" fill="#ea5455"/>
    <path id="Path_4268" data-name="Path 4268" d="M483.337,224.11a.579.579,0,0,0-.578.578V230.8a.578.578,0,0,0,1.155,0v-6.111A.579.579,0,0,0,483.337,224.11Z" transform="translate(-1536.57 788.117)" fill="#ea5455"/>
    <path id="Path_4269" data-name="Path 4269" d="M483.573,384.518a.6.6,0,1,1-.175-.422A.6.6,0,0,1,483.573,384.518Z" transform="translate(-1536.208 636.235)" fill="#ea5455" fill-rule="evenodd"/>
  </g>
</svg>
