<svg xmlns="http://www.w3.org/2000/svg" width="23.515" height="24.082" viewBox="0 0 23.515 24.082">
  <g id="Group_23491" data-name="Group 23491" transform="translate(-703.493 -245.959)">
    <path id="Path_11771" data-name="Path 11771" d="M158.664,81.645A11.762,11.762,0,1,0,170.425,93.4h0a1.141,1.141,0,1,0-2.281,0,9.48,9.48,0,1,1-2.777-6.7,1.141,1.141,0,1,0,1.614-1.614,11.726,11.726,0,0,0-8.317-3.438Z" transform="translate(556.582 164.888)" fill="#ea5455"/>
    <path id="Path_11772" data-name="Path 11772" d="M331.407,170.278a1.141,1.141,0,0,0-1.124,1.158V176.9a1.141,1.141,0,0,0,1.141,1.141h6.125a1.141,1.141,0,0,0,0-2.283h-4.983v-4.325a1.141,1.141,0,0,0-1.159-1.158Z" transform="translate(383.292 82.947)" fill="#ea5455"/>
    <path id="Path_11773" data-name="Path 11773" d="M399.435,71.729a1.141,1.141,0,0,0-1.135,1.353L398.982,77l-3.959-.353a1.141,1.141,0,0,0-.2,2.274l5.438.485h0a1.141,1.141,0,0,0,1.226-1.333l-.936-5.379a1.141,1.141,0,0,0-1.113-.961Z" transform="translate(324 174.231)" fill="#ea5455"/>
  </g>
</svg>
