<svg xmlns="http://www.w3.org/2000/svg" width="25.263" height="25.291" viewBox="0 0 25.263 25.291">
  <g id="Group_23492" data-name="Group 23492" transform="translate(-11633 -1859.5)">
    <path id="Path_11774" data-name="Path 11774" d="M95.459,279.989a2.554,2.554,0,0,1-1.431,1.576L80.1,287.518l-.309-.147c-6.27-2.977-7.109-3.427-7.3-3.574l1.09-1.11c.855.445,4.239,2.069,6.551,3.167l13.3-5.686h0a1.038,1.038,0,0,0-.8-1.915L82.5,282.419l-4.838-2.466.688-1.35,4.219,2.15,1.753-.723h0a6.069,6.069,0,0,0-1.065-1.517,8.814,8.814,0,0,0-11.51-.486l-1.434-.708a1.311,1.311,0,0,1,.276-.3,10.4,10.4,0,0,1,13.761.438,7.6,7.6,0,0,1,1.378,1.993l6.318-2.6a2.556,2.556,0,0,1,3.409,3.139Z" transform="translate(11562.684 1597.273)" fill="#5ab68e"/>
    <path id="Path_11775" data-name="Path 11775" d="M267.445,140.878l-3.025-3.025,1.073-1.073,1.952,1.952,3.606-3.605,1.073,1.073Z" transform="translate(11377.346 1730.475)" fill="#5ab68e"/>
    <path id="Path_11776" data-name="Path 11776" d="M168.869,8.985a8.914,8.914,0,0,1-1.459,4.9h-1.9a7.46,7.46,0,1,0-13.083-4.9,7.347,7.347,0,0,0,.39,2.37h-1.588a8.83,8.83,0,0,1-.319-2.37,8.978,8.978,0,0,1,17.957,0Z" transform="translate(11485.729 1859.493)" fill="#5ab68e"/>
  </g>
</svg>
