<svg xmlns="http://www.w3.org/2000/svg" width="11" height="11" viewBox="0 0 11 11">
  <g id="Path_11777" data-name="Path 11777" fill="#fff">
    <path d="M 5.5 10.5 C 2.742990016937256 10.5 0.5 8.257010459899902 0.5 5.5 C 0.5 2.742990016937256 2.742990016937256 0.5 5.5 0.5 C 8.257010459899902 0.5 10.5 2.742990016937256 10.5 5.5 C 10.5 8.257010459899902 8.257010459899902 10.5 5.5 10.5 Z" stroke="none"/>
    <path d="M 5.5 1 C 3.01869010925293 1 1 3.01869010925293 1 5.5 C 1 7.98130989074707 3.01869010925293 10 5.5 10 C 7.98130989074707 10 10 7.98130989074707 10 5.5 C 10 3.01869010925293 7.98130989074707 1 5.5 1 M 5.5 0 C 8.537569999694824 0 11 2.462430000305176 11 5.5 C 11 8.537569999694824 8.537569999694824 11 5.5 11 C 2.462430000305176 11 0 8.537569999694824 0 5.5 C 0 2.462430000305176 2.462430000305176 0 5.5 0 Z" stroke="none" fill="#ea5455"/>
  </g>
</svg>
