<svg xmlns="http://www.w3.org/2000/svg" width="25.795" height="22.645" viewBox="0 0 25.795 22.645">
  <g id="noun-pay-2303736" transform="translate(-104.704 -52.2)">
    <path id="Path_11778" data-name="Path 11778" d="M127.787,254.837l-6.082,3.792a2.237,2.237,0,0,0-2.095-3.055h-6.3a2.922,2.922,0,0,0-1.854.768l-1.312,1.312a1.346,1.346,0,0,0-1.333-1.181h-2.46a1.351,1.351,0,0,0-1.35,1.35v7.2a1.351,1.351,0,0,0,1.35,1.35h2.46a1.347,1.347,0,0,0,1.267-.9h9.081a5.861,5.861,0,0,0,3.438-1.319l7.071-6.366a1.79,1.79,0,0,0-1.882-2.949Zm-18.524,10.185a.451.451,0,0,1-.45.45h-2.46a.451.451,0,0,1-.45-.45v-7.2a.451.451,0,0,1,.45-.45h2.46a.451.451,0,0,1,.45.45Zm19.788-7.889L122,263.483a4.987,4.987,0,0,1-2.836,1.089h-9v-5.663l1.931-1.931a2.045,2.045,0,0,1,1.218-.5h6.3a1.35,1.35,0,1,1,0,2.7H114.9a.45.45,0,0,0,0,.9h5.159a4.17,4.17,0,0,0,1.9-.544l6.175-3.86a.891.891,0,0,1,.915,1.464Z" transform="translate(0 -191.826)" fill="#f5b461" stroke="#f5b461" stroke-width="0.6"/>
    <path id="Path_11779" data-name="Path 11779" d="M422.751,83.058l.872.317a.814.814,0,0,1-.279,1.579.8.8,0,0,1-.607-.248.877.877,0,0,1-.183-.27.45.45,0,1,0-.827.354,1.73,1.73,0,0,0,1.163,1v.605a.45.45,0,1,0,.9,0v-.609a1.708,1.708,0,0,0,.141-3.255l-.87-.316a.813.813,0,0,1,.279-1.577.742.742,0,0,1,.609.251.879.879,0,0,1,.182.267.45.45,0,1,0,.825-.358,1.734,1.734,0,0,0-1.165-.994v-.607a.45.45,0,1,0-.9,0v.612a1.707,1.707,0,0,0-.14,3.252Z" transform="translate(-300.342 -24.895)" fill="#f5b461" stroke="#f5b461" stroke-width="0.6"/>
    <path id="Path_11780" data-name="Path 11780" d="M355.4,63.3a5.4,5.4,0,1,0-5.4-5.4A5.4,5.4,0,0,0,355.4,63.3Zm0-9.9a4.5,4.5,0,1,1-4.5,4.5A4.5,4.5,0,0,1,355.4,53.4Z" transform="translate(-232.399)" fill="#f5b461" stroke="#f5b461" stroke-width="0.6"/>
  </g>
</svg>
