<svg xmlns="http://www.w3.org/2000/svg" width="18.125" height="21.605" viewBox="0 0 18.125 21.605">
  <g id="Group_23499" data-name="Group 23499" transform="translate(-19.385 -381.561)">
    <g id="Group_23096" data-name="Group 23096" transform="translate(26.095 388.805)">
      <path id="Path_3834" data-name="Path 3834" d="M0,0H5.919" fill="none" stroke="#288c96" stroke-linecap="round" stroke-linejoin="round" stroke-width="1.6"/>
    </g>
    <g id="Group_23097" data-name="Group 23097" transform="translate(26.095 392.173)">
      <path id="Path_3834-2" data-name="Path 3834" d="M0,0H5.919" fill="none" stroke="#288c96" stroke-linecap="round" stroke-linejoin="round" stroke-width="1.6"/>
    </g>
    <path id="Path_4243" data-name="Path 4243" d="M-1828.295,394.073s-.027-14.322-.031-14.3c-.051-.191,1.94,2.829,2.4,2.866s1.873-2.879,2.306-2.995,1.832,2.851,2.2,2.851,2.023-2.851,2.325-2.851,1.738,2.662,2.061,2.662,2.311-3.179,2.3-2.533c.022-.018,0,15.679,0,15.679s.286,3.973-2.3,4.122-11.734,0-11.734,0-2.508.111-2.458-3.507c.036-.009,0-1.739,0-1.739h11.452s-.682,5.171,2.5,5.245" transform="translate(1851.43 2.719)" fill="none" stroke="#288c96" stroke-width="1.6"/>
  </g>
</svg>
