<svg xmlns="http://www.w3.org/2000/svg" width="23.8" height="15.085" viewBox="0 0 23.8 15.085">
  <path id="Path_11783" data-name="Path 11783" d="M161.5,149.719l-5.1,1.358,2.848,7.837,3.359-.246-1.109-8.949ZM158.44,158.7l-.246.059a1.309,1.309,0,0,1-.389,1.589,1.5,1.5,0,0,1-1.215.237,1.261,1.261,0,0,1-.486.869,1.436,1.436,0,0,1-1.162.3.978.978,0,0,1-.427.751,1.5,1.5,0,0,1-1.355.1.9.9,0,0,1-.365.629c-.726.545-1.779-.053-2.349-.551l-5.481-4.465-.355,1.337-4.605.065.374-10.516,6.705,1.172-.218.813,3.156-.04c.29-.262.576-.517.854-.773l5.014,1.393-.386-1.059,6.577-1.754,1.293,10.442-4.593.336-.34-.932Zm-2.265-6.241-5.116-1.421-3.138,2.876c-.246.293-.533.8-.187,1.125a1.179,1.179,0,0,0,1.455-.118c.676-.4,1.651-1.225,2.334-1.732l5.8,5.085.885-.218-2.032-5.6ZM145.157,157.5l5.733,4.671c.284.246,1.1.816,1.5.52.19-.14.062-.43-.044-.592l-3.219-2.957.461-.5,3.284,3.013c.308.259.885.548,1.256.293.218-.153.128-.427.016-.623l-3.5-3.225.464-.5,3.428,3.166c.333.305.72.5,1.144.168a.547.547,0,0,0,.134-.757l-3.34-3.063.461-.5,3.375,3.091a.886.886,0,0,0,1.087.109.675.675,0,0,0,.128-.875l-.386.1-5.649-4.958-1.879,1.4a1.833,1.833,0,0,1-2.346.072,1.464,1.464,0,0,1,.15-2.078c.561-.57,1.193-1.147,1.832-1.717l-2.565.034-1.524,5.721Zm1.072-6.671-5.2-.91-.321,9.015,3.368-.05Z" transform="translate(-139.796 -148.604)" fill="#528eff" stroke="#528eff" stroke-width="0.4"/>
</svg>
