<svg xmlns="http://www.w3.org/2000/svg" width="14.823" height="17.604" viewBox="0 0 14.823 17.604">
  <g id="Group_23098" data-name="Group 23098" transform="translate(-19.385 -381.56)">
    <g id="Group_23096" data-name="Group 23096" transform="translate(24.916 387.515)">
      <path id="Path_3834" data-name="Path 3834" d="M0,0H4.735" fill="none" stroke="#7b7c89" stroke-linecap="round" stroke-linejoin="round" stroke-width="1.6"/>
    </g>
    <g id="Group_23097" data-name="Group 23097" transform="translate(24.916 390.21)">
      <path id="Path_3834-2" data-name="Path 3834" d="M0,0H4.735" fill="none" stroke="#7b7c89" stroke-linecap="round" stroke-linejoin="round" stroke-width="1.6"/>
    </g>
    <path id="Path_4243" data-name="Path 4243" d="M-1828.881,391.186s-.022-11.457-.025-11.442c-.041-.153,1.552,2.263,1.917,2.293s1.5-2.3,1.845-2.4,1.466,2.281,1.762,2.281,1.619-2.281,1.86-2.281,1.39,2.13,1.649,2.13,1.849-2.543,1.839-2.027c.018-.014,0,12.543,0,12.543s.229,3.178-1.839,3.3-9.388,0-9.388,0-2.006.089-1.966-2.805c.029-.007,0-1.391,0-1.391h9.161s-.545,4.137,2,4.2" transform="translate(1851.43 2.719)" fill="none" stroke="#7b7c89" stroke-width="1.6"/>
  </g>
</svg>
